<?xml version="1.0" encoding="utf-8"?><!DOCTYPE svg PUBLIC "-//W3C//DTD SVG 1.1//EN" "http://www.w3.org/Graphics/SVG/1.1/DTD/svg11.dtd"><svg xmlns="http://www.w3.org/2000/svg" viewBox="0 0 41 41" shape-rendering="crispEdges"><path fill="#D9FF57" d="M0 0h41v41H0z"/><path stroke="#10152C" d="M2 2.5h7m2 0h2m1 0h6m2 0h1m1 0h1m3 0h3m1 0h7M2 3.5h1m5 0h1m1 0h3m1 0h1m3 0h1m1 0h4m1 0h4m1 0h1m1 0h1m5 0h1M2 4.5h1m1 0h3m1 0h1m2 0h1m2 0h2m1 0h1m1 0h1m1 0h1m2 0h1m1 0h1m1 0h1m3 0h1m1 0h3m1 0h1M2 5.5h1m1 0h3m1 0h1m3 0h2m2 0h1m2 0h1m1 0h2m2 0h1m1 0h1m1 0h2m1 0h1m1 0h3m1 0h1M2 6.5h1m1 0h3m1 0h1m3 0h1m1 0h1m2 0h1m1 0h1m1 0h2m1 0h2m2 0h2m2 0h1m1 0h3m1 0h1M2 7.5h1m5 0h1m1 0h3m2 0h3m2 0h2m2 0h1m1 0h1m3 0h1m1 0h1m5 0h1M2 8.5h7m1 0h1m1 0h1m1 0h1m1 0h1m1 0h1m1 0h1m1 0h1m1 0h1m1 0h1m1 0h1m1 0h1m1 0h7M10 9.5h1m1 0h1m6 0h1m3 0h1m3 0h1M6 10.5h4m3 0h3m2 0h2m1 0h2m1 0h1m1 0h2m1 0h2m1 0h2m3 0h1M3 11.5h1m2 0h1m3 0h5m1 0h2m3 0h3m1 0h1m2 0h1m4 0h3M2 12.5h2m1 0h4m2 0h1m1 0h3m1 0h1m1 0h3m1 0h1m1 0h1m1 0h3m1 0h1m1 0h1m1 0h1M3 13.5h2m1 0h1m2 0h1m1 0h1m1 0h1m1 0h1m5 0h1m2 0h3m1 0h4m1 0h1m2 0h1M3 14.5h3m1 0h3m6 0h2m1 0h1m1 0h1m2 0h2m4 0h4m2 0h3M6 15.5h1m2 0h1m1 0h1m1 0h3m1 0h2m1 0h2m1 0h2m4 0h3m2 0h1m1 0h2M3 16.5h2m1 0h5m1 0h2m2 0h2m1 0h2m2 0h2m4 0h1m2 0h2m1 0h2M3 17.5h1m1 0h2m3 0h2m2 0h1m1 0h1m1 0h2m2 0h4m2 0h2m4 0h1m1 0h1M2 18.5h1m2 0h6m2 0h1m1 0h6m1 0h2m1 0h1m3 0h1m1 0h3m1 0h4M2 19.5h1m3 0h1m3 0h4m1 0h1m5 0h1m2 0h3m2 0h2m3 0h1M4 20.5h1m1 0h1m1 0h3m3 0h1m2 0h3m1 0h3m2 0h1m1 0h3m1 0h2m1 0h1M3 21.5h4m2 0h2m7 0h3m3 0h2m2 0h1m3 0h1m3 0h3M2 22.5h10m4 0h1m1 0h1m2 0h6m2 0h1m2 0h1m3 0h3M4 23.5h2m4 0h2m1 0h1m1 0h3m2 0h2m1 0h1m1 0h1m1 0h1m1 0h1m4 0h1M3 24.5h1m1 0h2m1 0h3m1 0h1m1 0h1m2 0h1m1 0h1m1 0h1m1 0h2m1 0h1m2 0h2m1 0h1m2 0h1M2 25.5h1m1 0h1m2 0h1m1 0h1m1 0h1m1 0h1m1 0h1m1 0h1m1 0h1m4 0h1m3 0h1m1 0h1m1 0h2m1 0h2m1 0h1M2 26.5h1m2 0h1m2 0h1m1 0h1m1 0h1m4 0h4m3 0h2m1 0h3m2 0h2m2 0h2M2 27.5h1m3 0h2m1 0h4m1 0h1m1 0h1m2 0h2m2 0h2m1 0h2m2 0h1m1 0h1m1 0h1m1 0h2M4 28.5h2m2 0h1m1 0h1m4 0h1m3 0h2m1 0h5m1 0h1m1 0h2m4 0h1M4 29.5h1m2 0h1m1 0h2m2 0h1m1 0h2m1 0h2m5 0h1m2 0h1m3 0h3m1 0h2M2 30.5h3m3 0h5m2 0h1m2 0h1m1 0h2m1 0h2m1 0h1m2 0h6m1 0h1M10 31.5h1m1 0h1m5 0h1m1 0h1m2 0h1m1 0h1m1 0h1m2 0h1m3 0h2M2 32.5h7m1 0h1m3 0h1m1 0h2m1 0h1m1 0h1m2 0h2m2 0h1m1 0h1m1 0h1m1 0h3M2 33.5h1m5 0h1m1 0h2m3 0h1m1 0h2m2 0h1m2 0h1m5 0h1m3 0h1m1 0h1m1 0h1M2 34.5h1m1 0h3m1 0h1m1 0h1m2 0h1m1 0h3m1 0h1m2 0h3m1 0h1m3 0h7m1 0h1M2 35.5h1m1 0h3m1 0h1m2 0h1m3 0h8m1 0h1m2 0h4m1 0h2m1 0h1M2 36.5h1m1 0h3m1 0h1m2 0h1m4 0h1m1 0h1m1 0h2m1 0h2m7 0h2m1 0h1m1 0h1M2 37.5h1m5 0h1m5 0h4m3 0h3m2 0h1m2 0h1m4 0h1m1 0h2M2 38.5h7m2 0h3m1 0h4m1 0h4m1 0h1m5 0h2m3 0h3"/></svg>
